<?xml version="1.0" encoding="UTF-8"?>
<svg id="Capa_1" data-name="Capa 1" xmlns="http://www.w3.org/2000/svg" xmlns:xlink="http://www.w3.org/1999/xlink" viewBox="0 0 674.52 674.52">
  <defs>
    <style>
      .cls-1 {
        fill: #2dad53;
      }

      .cls-2 {
        fill: url(#Degradado_sin_nombre_9);
      }

      .cls-3 {
        fill: #2fae53;
      }
    </style>
    <linearGradient id="Degradado_sin_nombre_9" data-name="Degradado sin nombre 9" x1="332.02" y1="-4.83" x2="342.35" y2="669.61" gradientUnits="userSpaceOnUse">
      <stop offset="0" stop-color="#ffd73b"/>
      <stop offset=".72" stop-color="#f25b2d"/>
      <stop offset="1" stop-color="#ed2a28"/>
    </linearGradient>
  </defs>
  <path class="cls-3" d="M205.42,305.55s-71.55,116.48-44.93,218.53c22.97,88.05,107.48,111.7,147.15,118.31,4.24.71,6.73-4.63,3.47-7.43-26.94-23.13-91.89-85.97-99.01-159.74-.02-.16-.02-.31,0-.47.11-1.91,1.01-14.33,6.64-12.79,5.09,1.39,31.45,55.75,40.02,73.66,1.97,4.12,4.18,8.1,6.64,11.95,12.35,19.34,51.13,77.65,79.7,94.13,3.25,1.88,7.37,1.23,9.85-1.59,11.59-13.17,41.41-56.29,14.26-128.26-2.63-6.98-6.05-13.66-10.18-19.87-10.22-15.37-33.73-46.54-74.29-78.83-57.13-45.48-68.22-112.04-68.22-112.04,0,0-2-12.07-11.09,4.44Z"/>
  <path class="cls-2" d="M337.26,0C151.29,0,0,151.29,0,337.26s151.29,337.26,337.26,337.26,337.26-151.29,337.26-337.26S523.23,0,337.26,0ZM452.65,615.7c26.9-33.81,63.1-106.8,2.61-215.52-86.11-154.75-94.84-227.12-87.36-272.06,0,0-109.81,91.11-99.83,200.92,0,0-9.99,43.68,68.64,116.69,73.04,67.83,106.23,126.5,62.52,186.52-20.01,4.22-40.73,6.42-61.96,6.42-166.2,0-301.42-135.21-301.42-301.42S171.06,35.84,337.26,35.84s301.42,135.21,301.42,301.42c0,125.36-76.92,233.07-186.03,278.44Z"/>
  <path class="cls-1" d="M337.27,78.74c-142.55,0-258.52,115.97-258.52,258.52,0,58.17,19.31,111.92,51.86,155.16l3.21-45.77c-17.6-32.57-27.58-69.83-27.58-109.39,0-127.39,103.64-231.03,231.03-231.03s231.03,103.64,231.03,231.03c0,55.27-19.5,106.05-52.01,145.85l2.9,37.64c47.28-46.87,76.59-111.82,76.59-183.49,0-142.55-115.97-258.52-258.52-258.52Z"/>
</svg>